<svg id="Ebene_1" data-name="Ebene 1" xmlns="http://www.w3.org/2000/svg" xmlns:xlink="http://www.w3.org/1999/xlink" viewBox="0 0 1920.98 411.42"><defs><style>.cls-1,.cls-3{fill:none;}.cls-2{clip-path:url(#clip-path);}.cls-3{stroke:#1d1d1b;stroke-width:29.96px;}</style><clipPath id="clip-path" transform="translate(-16 -779.8)"><rect class="cls-1" x="16" y="779.8" width="365.17" height="411.42"/></clipPath></defs><title>SOSETH_Logo</title><path d="M664.2,936.59c-.37-35.3-24.27-54.41-66.91-54.41-36,0-59.93,18-59.93,45.22,0,20.59,11.77,30.88,44.12,39.7l67.28,18c36.4,9.92,57,34.19,57,67.28,0,23.16-11.39,47.06-29.41,61.39C659.05,1127,633,1134.38,601,1134.38c-40.8,0-71.69-12.87-90.07-38.23-10.66-14.71-15.44-30.89-15.81-55.52h32.36c-.37,16.55,4,29.41,14,41.18,12.86,15.44,32.35,22.42,61.76,22.42,21.69,0,38.6-3.67,49.26-11.39,11.4-8.09,19.12-22.8,19.12-37.13,0-21-15.07-34.56-49.26-43.39l-66.55-17.64c-35.29-9.19-52.57-29.78-52.57-62.5,0-48.53,36.4-78.68,95.22-78.68,45.22,0,76.47,16.18,91.18,47.06,5.88,12.5,7,17.65,7,36Z" transform="translate(-16 -779.8)"/><path d="M991.77,996.15c0,43.75-17.28,85.29-46.32,109.92-21.7,18.39-50.37,28.31-83.09,28.31-77.57,0-129.41-56.25-129.41-140.44,0-83.82,52.2-140.44,129-140.44C940.67,853.5,991.77,909.75,991.77,996.15Zm-224.63-2.21c0,66.18,37.87,110.29,95.22,110.29,56.62,0,95.22-44.11,95.22-108.82,0-68-37.5-111.76-95.59-111.76C805,883.65,767.14,927.77,767.14,993.94Z" transform="translate(-16 -779.8)"/><path d="M1188.09,936.59c-.36-35.3-24.26-54.41-66.91-54.41-36,0-59.93,18-59.93,45.22,0,20.59,11.77,30.88,44.12,39.7l67.28,18c36.4,9.92,57,34.19,57,67.28,0,23.16-11.4,47.06-29.41,61.39-17.28,13.24-43.39,20.59-75.37,20.59-40.81,0-71.69-12.87-90.07-38.23-10.67-14.71-15.45-30.89-15.81-55.52h32.35c-.37,16.55,4,29.41,14,41.18,12.87,15.44,32.35,22.42,61.76,22.42,21.69,0,38.61-3.67,49.27-11.39,11.4-8.09,19.12-22.8,19.12-37.13,0-21-15.08-34.56-49.27-43.39l-66.54-17.64c-35.3-9.19-52.58-29.78-52.58-62.5,0-48.53,36.4-78.68,95.22-78.68,45.22,0,76.47,16.18,91.18,47.06,5.88,12.5,7,17.65,7,36Z" transform="translate(-16 -779.8)"/><path d="M1306.47,1095.78h158.09v30.15H1272.28v-268h185.66v30.15H1306.47v85.66h146v30.15h-146Z" transform="translate(-16 -779.8)"/><path d="M1610.88,1125.93h-34.19V888.06h-88.24V857.91h210.3v30.15h-87.87Z" transform="translate(-16 -779.8)"/><path d="M1764.92,1003.87v122.06h-34.19v-268h34.19V973.72h137.87V857.91H1937v268h-34.19V1003.87Z" transform="translate(-16 -779.8)"/><g class="cls-2"><path class="cls-3" d="M126.35,986.32A47.68,47.68,0,1,0,174,938.64" transform="translate(-16 -779.8)"/><path class="cls-3" d="M174,843.27a143.06,143.06,0,1,0,143,143.05" transform="translate(-16 -779.8)"/><path class="cls-3" d="M40.59,1120.38c74.48,74.48,195.25,74.48,269.74,0s74.48-195.26,0-269.74a190.17,190.17,0,0,0-134.87-55.87" transform="translate(-16 -779.8)"/><path class="cls-3" d="M241.46,1052.94a95.37,95.37,0,1,0-162.8-67.43" transform="translate(-16 -779.8)"/></g></svg>